<?xml version="1.0" standalone="no"?>
<!DOCTYPE svg PUBLIC "-//W3C//DTD SVG 20010904//EN"
 "http://www.w3.org/TR/2001/REC-SVG-20010904/DTD/svg10.dtd">
<svg version="1.0" xmlns="http://www.w3.org/2000/svg"
 width="1200.000000pt" height="1200.000000pt" viewBox="0 0 1200.000000 1200.000000"
 preserveAspectRatio="xMidYMid meet">
<metadata>
Created by potrace 1.14, written by Peter Selinger 2001-2017
</metadata>
<g transform="translate(0.000000,1200.000000) scale(0.100000,-0.100000)"
fill="#000000" stroke="none">
<path d="M5977 7670 l-17 -60 -48 -1 c-26 -1 -57 0 -69 1 -13 1 -23 0 -23 -3
0 -2 25 -21 55 -42 30 -20 55 -38 55 -40 0 -1 -9 -28 -20 -60 -11 -32 -19 -60
-17 -61 2 -2 27 13 55 33 l52 36 52 -36 c28 -20 53 -36 54 -34 2 1 -6 29 -17
61 -10 33 -19 60 -19 61 0 1 25 19 55 40 30 20 55 39 55 42 0 2 -12 4 -27 3
-16 -1 -47 -2 -70 -1 -41 1 -42 2 -58 54 -10 28 -20 55 -24 59 -3 4 -14 -20
-24 -52z"/>
<path d="M5550 7555 c0 -8 -7 -32 -15 -53 -16 -38 -16 -38 -70 -37 -30 1 -55
-1 -55 -4 0 -4 12 -14 28 -24 65 -40 64 -38 42 -101 l-19 -57 50 36 51 37 37
-29 c65 -52 67 -50 33 39 -10 25 -8 29 31 59 23 18 45 35 50 39 4 4 -17 6 -47
5 -30 -1 -59 1 -64 4 -4 3 -14 27 -22 54 -12 45 -30 64 -30 32z"/>
<path d="M6421 7521 c-14 -56 -18 -58 -83 -55 -27 1 -48 -2 -48 -7 0 -5 3 -9
8 -9 4 0 20 -11 36 -25 16 -14 33 -25 37 -25 4 0 -1 -25 -12 -57 -10 -31 -19
-58 -19 -61 0 -2 23 12 51 32 l50 37 37 -29 c59 -46 60 -45 41 15 -21 62 -22
60 44 100 15 10 27 20 27 23 0 4 -26 6 -57 6 l-56 -1 -15 53 c-8 28 -18 52
-21 52 -4 0 -13 -22 -20 -49z"/>
<path d="M5937 7304 c-1 -2 -25 -6 -52 -10 -145 -19 -287 -120 -364 -256 -53
-95 -70 -156 -75 -278 -3 -66 1 -106 18 -170 33 -125 62 -176 239 -418 142
-196 204 -309 262 -477 15 -44 30 -84 35 -88 4 -5 11 8 15 29 10 54 60 176
112 274 45 85 121 199 254 380 87 119 144 234 163 328 52 257 -76 521 -306
631 -46 21 -103 43 -128 47 -45 7 -168 13 -173 8z m377 -463 c-3 -3 -550 -5
-618 -2 -12 1 33 52 143 162 l161 160 159 -158 c87 -87 157 -160 155 -162z
m-86 -270 c1 -137 -1 -227 -7 -231 -6 -3 -108 -5 -228 -5 l-218 0 -3 230 -2
230 227 0 228 0 3 -224z"/>
<path d="M5848 6654 l-3 -64 67 0 67 0 -2 64 -1 65 -62 0 -62 0 -4 -65z"/>
<path d="M6021 6653 l-1 -63 64 0 64 0 4 49 c5 80 5 80 -66 79 l-63 -1 -2 -64z"/>
<path d="M5848 6525 c-2 -11 -1 -40 2 -65 l5 -46 61 1 62 0 0 62 c0 51 -3 63
-17 64 -103 5 -110 4 -113 -16z"/>
<path d="M6036 6542 c-14 -3 -16 -14 -14 -65 l3 -62 55 -1 c30 0 60 1 65 3 10
3 12 110 2 119 -7 7 -86 11 -111 6z"/>
<path d="M5296 7205 c-17 -76 -23 -82 -76 -80 -28 1 -50 -1 -50 -4 0 -6 15
-18 65 -55 14 -10 14 -16 0 -55 -22 -63 -19 -66 26 -31 l40 33 35 -19 c18 -10
34 -22 34 -25 0 -4 6 -9 14 -12 13 -5 13 0 1 40 -7 25 -16 47 -19 50 -3 3 17
23 46 44 l51 38 -58 -3 -57 -4 -14 37 c-33 82 -30 78 -38 46z"/>
<path d="M6684 7210 c-4 -14 -9 -27 -9 -30 -13 -47 -24 -57 -65 -55 -54 3 -59
-9 -16 -37 41 -26 42 -30 21 -88 -8 -23 -15 -44 -15 -47 0 -2 20 10 45 27 45
31 47 31 73 14 15 -9 37 -26 49 -36 l21 -20 -21 57 -21 58 25 21 c14 11 35 28
49 37 23 15 23 16 -29 15 -28 -1 -55 1 -60 4 -4 3 -14 27 -23 55 -14 46 -16
48 -24 25z"/>
<path d="M7407 5790 c-11 -4 -14 -65 -8 -166 l1 -21 1425 1 1425 0 0 93 c0 51
-3 93 -7 94 -30 4 -2826 3 -2836 -1z"/>
<path d="M1767 5772 c-14 -3 -17 -17 -17 -97 l0 -93 1420 0 c909 0 1423 4
1426 10 4 6 7 48 8 94 l1 84 -35 1 c-145 2 -2790 3 -2803 1z"/>
<path d="M2649 5093 c-2 -10 -4 -200 -3 -423 l0 -405 52 -3 52 -3 0 219 0 218
28 27 c53 51 139 71 191 44 14 -6 33 -27 44 -45 17 -29 19 -54 19 -247 l0
-215 52 0 53 0 -2 223 c-2 237 -8 272 -57 324 -61 65 -186 69 -272 9 l-51 -36
-3 165 -2 165 -49 0 c-38 0 -49 -4 -52 -17z"/>
<path d="M4964 4685 l0 -425 51 0 51 0 0 425 1 425 -52 0 -51 0 0 -425z"/>
<path d="M8398 5103 c-2 -5 -4 -195 -3 -423 l0 -415 51 -3 51 -3 0 426 1 425
-49 0 c-26 0 -49 -3 -51 -7z"/>
<path d="M8671 5084 c-12 -15 -21 -38 -21 -51 0 -31 42 -73 75 -73 23 0 64 29
66 48 0 4 2 17 3 30 4 31 -39 72 -75 72 -18 0 -35 -9 -48 -26z"/>
<path d="M4006 5032 c-6 -11 -22 -117 -25 -174 -1 -13 -14 -19 -52 -24 -49 -7
-50 -7 -47 -38 3 -29 6 -31 47 -36 l44 -5 1 -205 c1 -184 3 -208 21 -237 42
-71 157 -84 242 -28 l24 16 -21 29 c-21 29 -22 29 -50 15 -40 -21 -73 -19 -95
5 -16 18 -18 42 -19 215 l-2 195 87 0 86 0 0 38 -1 37 -86 5 -85 5 0 98 1 97
-33 0 c-17 0 -34 -4 -37 -8z"/>
<path d="M3441 4844 c-66 -24 -118 -70 -149 -133 -24 -50 -27 -67 -27 -156 0
-90 3 -106 29 -159 49 -99 136 -147 259 -142 131 5 213 68 250 191 36 123 7
261 -73 346 -53 58 -202 85 -289 53z m196 -92 c58 -41 87 -144 70 -251 -18
-122 -63 -166 -169 -166 -80 0 -112 19 -146 88 -26 51 -35 144 -20 212 12 55
53 114 91 131 46 21 136 14 174 -14z"/>
<path d="M4502 4845 c-112 -35 -185 -146 -185 -280 0 -51 28 -175 41 -185 4
-3 19 -21 33 -40 42 -56 110 -85 199 -85 92 0 157 18 204 57 l36 29 -24 26
-24 26 -63 -32 c-149 -74 -278 -7 -297 155 l-5 44 206 0 c230 0 219 -4 211 76
-18 166 -168 261 -332 209z m155 -80 c21 -9 45 -26 54 -38 19 -26 40 -93 31
-101 -3 -3 -77 -6 -164 -6 l-159 0 7 23 c15 49 23 65 46 89 43 46 119 60 185
33z"/>
<path d="M5747 4845 c-35 -12 -51 -23 -105 -72 -18 -17 -17 -18 -20 23 -3 50
-7 54 -53 54 l-39 0 0 -395 0 -395 50 0 c33 0 50 4 51 13 0 6 1 65 1 129 l1
117 28 -24 c69 -57 184 -60 264 -5 84 58 124 149 121 281 -4 216 -133 334
-299 274z m100 -76 c67 -25 95 -94 92 -222 -3 -101 -31 -163 -89 -196 -62 -35
-150 -23 -197 28 -18 20 -20 36 -20 164 l-1 142 32 34 c52 56 119 75 183 50z"/>
<path d="M6332 4845 c-147 -46 -217 -203 -175 -392 12 -53 22 -71 66 -117 41
-42 64 -58 106 -70 235 -69 412 107 367 364 -31 173 -192 269 -364 215z m155
-76 c70 -26 104 -89 108 -197 5 -159 -55 -242 -176 -242 -56 0 -112 33 -140
84 -20 35 -24 55 -24 136 0 79 4 103 23 142 36 73 129 108 209 77z"/>
<path d="M7035 4850 c-16 -5 -48 -25 -69 -45 -44 -39 -48 -41 -40 -22 3 8 0
26 -5 40 -9 23 -16 27 -50 27 l-40 0 1 -295 0 -296 52 3 51 3 0 210 c1 116 4
219 8 230 4 11 26 33 49 48 35 23 51 28 86 24 87 -9 101 -52 101 -307 -1 -96
0 -183 0 -193 1 -15 9 -18 52 -15 l52 3 -1 205 c0 229 6 257 60 290 66 40 148
16 170 -50 7 -22 13 -111 14 -235 1 -110 2 -203 3 -207 1 -5 23 -8 51 -8 l50
0 -1 211 c-1 233 -9 282 -56 331 -42 44 -88 61 -155 55 -67 -6 -118 -34 -151
-82 l-22 -33 -18 37 c-10 20 -30 45 -44 55 -30 22 -104 30 -148 16z"/>
<path d="M7933 4846 c-116 -38 -183 -144 -183 -288 1 -175 99 -293 255 -306
70 -5 156 16 211 51 38 25 43 46 15 71 -17 16 -22 15 -82 -14 -139 -65 -257
-16 -288 120 -20 86 -36 79 197 82 l207 3 1 47 c1 95 -53 185 -135 224 -46 22
-145 27 -198 10z m179 -92 c35 -25 50 -51 58 -96 l7 -38 -163 0 -163 0 9 30
c25 87 89 134 176 127 29 -2 61 -11 76 -23z"/>
<path d="M9054 4845 c-42 -14 -124 -67 -124 -79 1 -18 26 -46 43 -46 8 0 41
14 72 30 61 32 114 38 154 17 34 -17 61 -74 61 -128 l0 -46 -79 -7 c-81 -7
-170 -32 -215 -61 -66 -43 -86 -142 -43 -206 33 -49 70 -64 152 -63 59 0 77 5
115 29 24 15 51 35 59 43 13 13 17 10 29 -27 13 -40 16 -42 49 -39 l36 3 -1
202 c0 245 -11 293 -73 346 -55 48 -150 61 -235 32z m204 -387 c-3 -61 -4 -63
-46 -91 -53 -36 -139 -48 -176 -24 -29 19 -46 64 -35 94 16 44 102 77 212 82
l48 2 -3 -63z"/>
<path d="M8672 4555 l-1 -295 50 0 c32 0 49 4 50 13 1 14 1 532 0 560 -1 14
-10 17 -50 17 l-48 0 -1 -295z"/>
</g>
</svg>
